<svg width="94" height="94" fill="none" xmlns="http://www.w3.org/2000/svg"><path d="M43.782 0c-5.686 0-10.294 4.608-10.294 10.294v22.764c0 15.161 12.29 27.454 27.45 27.454h22.768C89.392 60.512 94 55.9 94 50.214v-6.862c0-5.685-4.608-10.29-10.294-10.29H60.942V10.294C60.942 4.608 56.329 0 50.644 0h-6.862z" fill="#00ACC1"/><path d="M50.644 93.57c5.686 0 10.294-4.608 10.294-10.294V60.512c0-15.162-12.29-27.454-27.45-27.454H10.72C5.034 33.058.426 37.67.426 43.356v6.862c0 5.685 4.608 10.29 10.294 10.29h22.764v22.768c0 5.686 4.613 10.294 10.298 10.294h6.862z" fill="#8932B6"/><path d="M33.489 33.058c0 15.162 12.29 27.454 27.45 27.454 0-15.162-12.29-27.454-27.45-27.454z" fill="#5B008A"/></svg>