<svg width="118" height="118" fill="none" xmlns="http://www.w3.org/2000/svg"><path d="M0 39.176C0 6.915 6.915 0 39.176 0h39.648C111.085 0 118 6.915 118 39.176v39.648C118 111.085 111.085 118 78.824 118H39.176C6.915 118 0 111.085 0 78.824V39.176z" fill="#fff"/><path d="M55.356 12c-5.686 0-10.294 4.608-10.294 10.294v22.764c0 15.162 12.29 27.454 27.45 27.454H95.28c5.686 0 10.294-4.611 10.294-10.298v-6.862c0-5.685-4.608-10.29-10.294-10.29H72.516V22.294C72.516 16.608 67.903 12 62.218 12h-6.862z" fill="#00ACC1"/><path d="M62.218 105.57c5.686 0 10.294-4.608 10.294-10.294V72.512c0-15.162-12.29-27.454-27.45-27.454H22.294C16.608 45.058 12 49.67 12 55.356v6.862c0 5.685 4.608 10.29 10.294 10.29h22.764v22.768c0 5.686 4.613 10.294 10.298 10.294h6.862z" fill="#8932B6"/><path d="M45.063 45.058c0 15.162 12.289 27.454 27.45 27.454 0-15.162-12.29-27.454-27.45-27.454z" fill="#5B008A"/></svg>